<svg width="27" height="41" viewBox="0 0 27 41" fill="none" xmlns="http://www.w3.org/2000/svg">
<path d="M5.93334 36.6763C4.66934 36.6763 3.62134 36.2603 2.78934 35.4283C1.95734 34.5803 1.54134 33.5443 1.54134 32.3203C1.54134 31.0883 1.95734 30.0563 2.78934 29.2243C3.61334 28.3843 4.66134 27.9643 5.93334 27.9643C6.69334 27.9643 7.39334 28.1443 8.03334 28.5043C8.68134 28.8643 9.18534 29.3523 9.54534 29.9683L8.34534 30.6643C8.12134 30.2483 7.79334 29.9203 7.36134 29.6803C6.93734 29.4323 6.46134 29.3083 5.93334 29.3083C5.04534 29.3083 4.31734 29.5923 3.74934 30.1603C3.19734 30.7203 2.92134 31.4403 2.92134 32.3203C2.92134 33.2003 3.19734 33.9203 3.74934 34.4803C4.31734 35.0483 5.04534 35.3323 5.93334 35.3323C6.46134 35.3323 6.94134 35.2123 7.37334 34.9723C7.80534 34.7243 8.12934 34.3923 8.34534 33.9763L9.54534 34.6603C9.20134 35.2683 8.70134 35.7603 8.04534 36.1363C7.41334 36.4963 6.70934 36.6763 5.93334 36.6763ZM15.3481 31.3723V30.5203H16.6441V36.5203H15.3481V35.6563C14.8601 36.3363 14.1601 36.6763 13.2481 36.6763C12.4241 36.6763 11.7201 36.3723 11.1361 35.7643C10.5521 35.1563 10.2601 34.4083 10.2601 33.5203C10.2601 32.6323 10.5521 31.8843 11.1361 31.2763C11.7201 30.6683 12.4241 30.3643 13.2481 30.3643C14.1601 30.3643 14.8601 30.7003 15.3481 31.3723ZM12.0961 34.9003C12.4561 35.2603 12.9081 35.4403 13.4521 35.4403C13.9961 35.4403 14.4481 35.2603 14.8081 34.9003C15.1681 34.5323 15.3481 34.0723 15.3481 33.5203C15.3481 32.9683 15.1681 32.5123 14.8081 32.1523C14.4481 31.7843 13.9961 31.6003 13.4521 31.6003C12.9081 31.6003 12.4561 31.7843 12.0961 32.1523C11.7361 32.5123 11.5561 32.9683 11.5561 33.5203C11.5561 34.0643 11.7361 34.5243 12.0961 34.9003ZM19.4507 30.5203V31.5283C19.7787 30.7843 20.3947 30.4123 21.2987 30.4123V31.8163C20.8107 31.7843 20.3787 31.9043 20.0027 32.1763C19.6347 32.4403 19.4507 32.8803 19.4507 33.4963V36.5203H18.1547V30.5203H19.4507ZM25.7566 30.5203V31.7683H24.2686V34.6483C24.2686 34.8963 24.3246 35.0763 24.4366 35.1883C24.5486 35.2923 24.7126 35.3523 24.9286 35.3683C25.1526 35.3763 25.4286 35.3723 25.7566 35.3563V36.5203C24.7646 36.6403 24.0526 36.5563 23.6206 36.2683C23.1886 35.9723 22.9726 35.4323 22.9726 34.6483V31.7683H21.8686V30.5203H22.9726V29.2243L24.2686 28.8403V30.5203H25.7566Z" fill="#181725"/>
<path d="M11.214 20.3517C10.5654 20.3517 9.94343 20.0941 9.48484 19.6355C9.02624 19.1769 8.76861 18.5549 8.76861 17.9064C8.76861 17.2578 9.02624 16.6358 9.48484 16.1772C9.94343 15.7186 10.5654 15.461 11.214 15.461C11.8625 15.461 12.4845 15.7186 12.9431 16.1772C13.4017 16.6358 13.6593 17.2578 13.6593 17.9064C13.6593 18.5549 13.4017 19.1769 12.9431 19.6355C12.4845 20.0941 11.8625 20.3517 11.214 20.3517ZM19.7727 20.3517C19.1242 20.3517 18.5022 20.0941 18.0436 19.6355C17.585 19.1769 17.3274 18.5549 17.3274 17.9064C17.3274 17.2578 17.585 16.6358 18.0436 16.1772C18.5022 15.7186 19.1242 15.461 19.7727 15.461C20.4213 15.461 21.0433 15.7186 21.5019 16.1772C21.9605 16.6358 22.2181 17.2578 22.2181 17.9064C22.2181 18.5549 21.9605 19.1769 21.5019 19.6355C21.0433 20.0941 20.4213 20.3517 19.7727 20.3517ZM3.83142 3.14004C3.52619 3.13019 3.23675 3.00202 3.02432 2.78262C2.81189 2.56323 2.69312 2.26981 2.69312 1.96443C2.69312 1.65904 2.81189 1.36562 3.02432 1.14623C3.23675 0.926835 3.52619 0.798663 3.83142 0.788818L5.23872 0.788818C6.34158 0.788818 7.29528 1.55422 7.53492 2.63018L9.06694 9.52855C9.30659 10.6045 10.2603 11.3699 11.3631 11.3699H20.5479L22.311 4.31503H10.8851C10.5827 4.30124 10.2973 4.17142 10.0882 3.95257C9.87914 3.73373 9.76247 3.44271 9.76247 3.14004C9.76247 2.83737 9.87914 2.54634 10.0882 2.3275C10.2973 2.10866 10.5827 1.97884 10.8851 1.96504H22.311C22.6685 1.96493 23.0212 2.04632 23.3425 2.20301C23.6637 2.35971 23.945 2.58758 24.165 2.86931C24.385 3.15105 24.5378 3.47922 24.6119 3.82889C24.686 4.17856 24.6794 4.54052 24.5926 4.88725L22.8294 11.9397C22.7023 12.4486 22.4087 12.9003 21.9953 13.2231C21.5819 13.5459 21.0724 13.7212 20.5479 13.7211H11.3631C10.293 13.7213 9.2549 13.3564 8.42016 12.6869C7.58542 12.0173 7.00402 11.083 6.77197 10.0384L5.23872 3.14004H3.83142Z" fill="#181725"/>
</svg>
