<svg width="42" height="39" viewBox="0 0 42 39" fill="none" xmlns="http://www.w3.org/2000/svg">
<path d="M24.5529 14.0713C25.3408 14.0713 26.121 13.9161 26.849 13.6146C27.5769 13.3131 28.2384 12.8711 28.7955 12.3139C29.3527 11.7568 29.7946 11.0954 30.0961 10.3674C30.3977 9.63945 30.5529 8.85924 30.5529 8.0713C30.5529 7.28337 30.3977 6.50316 30.0961 5.7752C29.7946 5.04725 29.3527 4.38581 28.7955 3.82866C28.2384 3.27151 27.5769 2.82956 26.849 2.52803C26.121 2.2265 25.3408 2.0713 24.5529 2.0713C22.9616 2.0713 21.4354 2.70344 20.3102 3.82866C19.185 4.95388 18.5529 6.48001 18.5529 8.0713C18.5529 9.6626 19.185 11.1887 20.3102 12.3139C21.4354 13.4392 22.9616 14.0713 24.5529 14.0713ZM30.8729 12.9773L34.4529 16.5573C34.5483 16.6496 34.6244 16.76 34.6767 16.8821C34.7291 17.0041 34.7565 17.1353 34.7576 17.2681C34.7587 17.4009 34.7333 17.5326 34.6829 17.6554C34.6325 17.7783 34.5582 17.8899 34.4642 17.9837C34.3703 18.0775 34.2586 18.1517 34.1357 18.2019C34.0127 18.2521 33.881 18.2773 33.7483 18.276C33.6155 18.2748 33.4843 18.2471 33.3623 18.1946C33.2403 18.1421 33.1301 18.0659 33.0379 17.9703L29.4579 14.3903C27.8503 15.6382 25.8277 16.2265 23.8016 16.0355C21.7756 15.8445 19.8985 14.8886 18.5524 13.3624C17.2064 11.8361 16.4926 9.85425 16.5563 7.82023C16.62 5.78621 17.4565 3.85293 18.8955 2.41395C20.3345 0.974973 22.2678 0.138471 24.3018 0.0747298C26.3358 0.0109887 28.3177 0.724801 29.8439 2.07085C31.3702 3.41691 32.3261 5.29402 32.5171 7.32006C32.708 9.3461 32.1197 11.3688 30.8719 12.9763L30.8729 12.9773Z" fill="#181725"/>
<rect x="6.40833" y="0.0708008" width="8.85499" height="2.39923" rx="1.19961" fill="#181725"/>
<rect x="6.40833" y="7.50903" width="6.46414" height="2.39923" rx="1.19961" fill="#181725"/>
<rect x="6.40833" y="14.9475" width="8.85499" height="2.39923" rx="1.19961" fill="#181725"/>
<path d="M2.33621 30.9323V33.2003H6.05621V34.5203H0.956211V26.1203H5.99621V27.4403H2.33621V29.6243H5.69621V30.9323H2.33621ZM10.3555 31.4483L12.5995 34.5203H11.0995L9.61149 32.4683L8.11149 34.5203H6.59949L8.85549 31.4363L6.71949 28.5203H8.21949L9.59949 30.4163L10.9795 28.5203H12.4915L10.3555 31.4483ZM16.8659 28.3643C17.6819 28.3643 18.3859 28.6723 18.9779 29.2883C19.5619 29.8963 19.8539 30.6403 19.8539 31.5203C19.8539 32.4083 19.5619 33.1563 18.9779 33.7643C18.3939 34.3723 17.6899 34.6763 16.8659 34.6763C15.9619 34.6763 15.2619 34.3403 14.7659 33.6683V36.9203H13.4699V28.5203H14.7659V29.3843C15.2539 28.7043 15.9539 28.3643 16.8659 28.3643ZM15.3059 32.9003C15.6659 33.2603 16.1179 33.4403 16.6619 33.4403C17.2059 33.4403 17.6579 33.2603 18.0179 32.9003C18.3779 32.5323 18.5579 32.0723 18.5579 31.5203C18.5579 30.9683 18.3779 30.5123 18.0179 30.1523C17.6579 29.7843 17.2059 29.6003 16.6619 29.6003C16.1179 29.6003 15.6659 29.7843 15.3059 30.1523C14.9459 30.5123 14.7659 30.9683 14.7659 31.5203C14.7659 32.0643 14.9459 32.5243 15.3059 32.9003ZM22.3245 34.5203H21.0285V25.7603H22.3245V34.5203ZM28.9052 33.7643C28.2972 34.3723 27.5492 34.6763 26.6612 34.6763C25.7732 34.6763 25.0252 34.3723 24.4172 33.7643C23.8012 33.1483 23.4932 32.4003 23.4932 31.5203C23.4932 30.6403 23.8012 29.8923 24.4172 29.2763C25.0252 28.6683 25.7732 28.3643 26.6612 28.3643C27.5492 28.3643 28.2972 28.6683 28.9052 29.2763C29.5212 29.8923 29.8292 30.6403 29.8292 31.5203C29.8292 32.4003 29.5212 33.1483 28.9052 33.7643ZM24.7892 31.5203C24.7892 32.0643 24.9692 32.5163 25.3292 32.8763C25.6892 33.2363 26.1332 33.4163 26.6612 33.4163C27.1892 33.4163 27.6332 33.2363 27.9932 32.8763C28.3532 32.5163 28.5332 32.0643 28.5332 31.5203C28.5332 30.9763 28.3532 30.5243 27.9932 30.1643C27.6332 29.8043 27.1892 29.6243 26.6612 29.6243C26.1332 29.6243 25.6892 29.8043 25.3292 30.1643C24.9692 30.5243 24.7892 30.9763 24.7892 31.5203ZM32.2971 28.5203V29.5283C32.6251 28.7843 33.2411 28.4123 34.1451 28.4123V29.8163C33.6571 29.7843 33.2251 29.9043 32.8491 30.1763C32.4811 30.4403 32.2971 30.8803 32.2971 31.4963V34.5203H31.0011V28.5203H32.2971ZM40.6174 32.0723H35.8414C35.9374 32.5203 36.1534 32.8683 36.4894 33.1163C36.8334 33.3643 37.2574 33.4883 37.7614 33.4883C38.4414 33.4883 38.9574 33.2403 39.3094 32.7443L40.3774 33.3683C39.7934 34.2403 38.9174 34.6763 37.7494 34.6763C36.7814 34.6763 35.9934 34.3803 35.3854 33.7883C34.7854 33.1883 34.4854 32.4323 34.4854 31.5203C34.4854 30.6323 34.7814 29.8843 35.3734 29.2763C35.9574 28.6683 36.7174 28.3643 37.6534 28.3643C38.5254 28.3643 39.2454 28.6723 39.8134 29.2883C40.3814 29.9043 40.6654 30.6523 40.6654 31.5323C40.6654 31.6923 40.6494 31.8723 40.6174 32.0723ZM35.8294 31.0163H39.3574C39.2694 30.5443 39.0694 30.1803 38.7574 29.9243C38.4534 29.6683 38.0814 29.5403 37.6414 29.5403C37.1614 29.5403 36.7614 29.6723 36.4414 29.9363C36.1214 30.2003 35.9174 30.5603 35.8294 31.0163Z" fill="#181725"/>
</svg>
