<svg width="54" height="43" viewBox="0 0 54 43" fill="none" xmlns="http://www.w3.org/2000/svg">
<g clip-path="url(#clip0_1_1376)">
<path d="M18.9672 11.8434L26.7913 19.6675L34.6154 11.8434C35.3071 11.1517 35.6957 10.2135 35.6957 9.23519C35.6957 8.25691 35.3071 7.3187 34.6154 6.62696C34.2729 6.28444 33.8662 6.01274 33.4187 5.82737C32.9712 5.642 32.4915 5.54659 32.0071 5.54659C31.0289 5.54659 30.0906 5.93521 29.3989 6.62696L26.7913 9.23458L24.1837 6.62818C23.4901 5.94572 22.5551 5.56494 21.5821 5.56878C20.6091 5.57263 19.677 5.96079 18.9889 6.64872C18.3008 7.33665 17.9125 8.26861 17.9084 9.2416C17.9043 10.2146 18.2849 11.1498 18.9672 11.8434ZM25.9221 4.88731L26.7913 5.75652L27.6605 4.88731C28.2304 4.31239 28.9082 3.8557 29.6551 3.54345C30.402 3.23121 31.2032 3.06956 32.0127 3.06779C32.8222 3.06601 33.6241 3.22415 34.3724 3.53312C35.1206 3.8421 35.8005 4.29581 36.3729 4.86823C36.9453 5.44065 37.399 6.12049 37.708 6.86873C38.017 7.61697 38.1751 8.41887 38.1733 9.22839C38.1715 10.0379 38.0099 10.8391 37.6976 11.586C37.3854 12.3329 36.9287 13.0107 36.3538 13.5806L27.6617 22.2739C27.5475 22.3882 27.4119 22.4789 27.2627 22.5408C27.1134 22.6027 26.9535 22.6345 26.7919 22.6345C26.6303 22.6345 26.4703 22.6027 26.3211 22.5408C26.1718 22.4789 26.0363 22.3882 25.9221 22.2739L17.2288 13.5818C16.646 13.0138 16.1819 12.3356 15.8633 11.5868C15.5447 10.838 15.3779 10.0333 15.3727 9.2195C15.3675 8.4057 15.5239 7.59897 15.8329 6.84611C16.1419 6.09324 16.5973 5.40922 17.1727 4.83373C17.7481 4.25823 18.4321 3.80273 19.1849 3.49362C19.9377 3.18452 20.7444 3.02798 21.5582 3.03308C22.372 3.03818 23.1767 3.20482 23.9256 3.52333C24.6745 3.84184 25.3527 4.30588 25.9208 4.88854L25.9221 4.88731Z" fill="#181725"/>
</g>
<path d="M6.51732 30.1203V31.4403H2.97732V33.7923H6.39732V35.1123H2.97732V38.5203H1.59732V30.1203H6.51732ZM12.4763 33.3723V32.5203H13.7723V38.5203H12.4763V37.6563C11.9883 38.3363 11.2883 38.6763 10.3763 38.6763C9.55226 38.6763 8.84826 38.3723 8.26426 37.7643C7.68026 37.1563 7.38826 36.4083 7.38826 35.5203C7.38826 34.6323 7.68026 33.8843 8.26426 33.2763C8.84826 32.6683 9.55226 32.3643 10.3763 32.3643C11.2883 32.3643 11.9883 32.7003 12.4763 33.3723ZM9.22426 36.9003C9.58426 37.2603 10.0363 37.4403 10.5803 37.4403C11.1243 37.4403 11.5763 37.2603 11.9363 36.9003C12.2963 36.5323 12.4763 36.0723 12.4763 35.5203C12.4763 34.9683 12.2963 34.5123 11.9363 34.1523C11.5763 33.7843 11.1243 33.6003 10.5803 33.6003C10.0363 33.6003 9.58426 33.7843 9.22426 34.1523C8.86426 34.5123 8.68426 34.9683 8.68426 35.5203C8.68426 36.0643 8.86426 36.5243 9.22426 36.9003ZM17.6829 37.0803L19.3509 32.5203H20.7669L18.4269 38.5203H16.9269L14.5869 32.5203H16.0029L17.6829 37.0803ZM26.4292 37.7643C25.8212 38.3723 25.0732 38.6763 24.1852 38.6763C23.2972 38.6763 22.5492 38.3723 21.9412 37.7643C21.3252 37.1483 21.0172 36.4003 21.0172 35.5203C21.0172 34.6403 21.3252 33.8923 21.9412 33.2763C22.5492 32.6683 23.2972 32.3643 24.1852 32.3643C25.0732 32.3643 25.8212 32.6683 26.4292 33.2763C27.0452 33.8923 27.3532 34.6403 27.3532 35.5203C27.3532 36.4003 27.0452 37.1483 26.4292 37.7643ZM22.3132 35.5203C22.3132 36.0643 22.4932 36.5163 22.8532 36.8763C23.2132 37.2363 23.6572 37.4163 24.1852 37.4163C24.7132 37.4163 25.1572 37.2363 25.5172 36.8763C25.8772 36.5163 26.0572 36.0643 26.0572 35.5203C26.0572 34.9763 25.8772 34.5243 25.5172 34.1643C25.1572 33.8043 24.7132 33.6243 24.1852 33.6243C23.6572 33.6243 23.2132 33.8043 22.8532 34.1643C22.4932 34.5243 22.3132 34.9763 22.3132 35.5203ZM32.569 35.7363V32.5203H33.865V38.5203H32.569V37.7523C32.169 38.3683 31.549 38.6763 30.709 38.6763C30.013 38.6763 29.453 38.4563 29.029 38.0163C28.613 37.5683 28.405 36.9643 28.405 36.2043V32.5203H29.701V36.0723C29.701 36.5203 29.821 36.8643 30.061 37.1043C30.301 37.3443 30.629 37.4643 31.045 37.4643C31.517 37.4643 31.889 37.3203 32.161 37.0323C32.433 36.7363 32.569 36.3043 32.569 35.7363ZM36.6765 32.5203V33.5283C37.0045 32.7843 37.6205 32.4123 38.5245 32.4123V33.8163C38.0365 33.7843 37.6045 33.9043 37.2285 34.1763C36.8605 34.4403 36.6765 34.8803 36.6765 35.4963V38.5203H35.3805V32.5203H36.6765ZM40.7061 31.3803C40.5461 31.5403 40.3541 31.6203 40.1301 31.6203C39.9061 31.6203 39.7101 31.5403 39.5421 31.3803C39.3821 31.2123 39.3021 31.0163 39.3021 30.7923C39.3021 30.5683 39.3821 30.3763 39.5421 30.2163C39.7021 30.0483 39.8981 29.9643 40.1301 29.9643C40.3621 29.9643 40.5581 30.0483 40.7181 30.2163C40.8781 30.3763 40.9581 30.5683 40.9581 30.7923C40.9581 31.0163 40.8741 31.2123 40.7061 31.3803ZM40.7781 38.5203H39.4821V32.5203H40.7781V38.5203ZM45.6309 32.5203V33.7683H44.1429V36.6483C44.1429 36.8963 44.1989 37.0763 44.3109 37.1883C44.4229 37.2923 44.5869 37.3523 44.8029 37.3683C45.0269 37.3763 45.3029 37.3723 45.6309 37.3563V38.5203C44.6389 38.6403 43.9269 38.5563 43.4949 38.2683C43.0629 37.9723 42.8469 37.4323 42.8469 36.6483V33.7683H41.7429V32.5203H42.8469V31.2243L44.1429 30.8403V32.5203H45.6309ZM52.3562 36.0723H47.5802C47.6762 36.5203 47.8922 36.8683 48.2282 37.1163C48.5722 37.3643 48.9962 37.4883 49.5002 37.4883C50.1802 37.4883 50.6962 37.2403 51.0482 36.7443L52.1162 37.3683C51.5322 38.2403 50.6562 38.6763 49.4882 38.6763C48.5202 38.6763 47.7322 38.3803 47.1242 37.7883C46.5242 37.1883 46.2242 36.4323 46.2242 35.5203C46.2242 34.6323 46.5202 33.8843 47.1122 33.2763C47.6962 32.6683 48.4562 32.3643 49.3922 32.3643C50.2642 32.3643 50.9842 32.6723 51.5522 33.2883C52.1202 33.9043 52.4042 34.6523 52.4042 35.5323C52.4042 35.6923 52.3882 35.8723 52.3562 36.0723ZM47.5682 35.0163H51.0962C51.0082 34.5443 50.8082 34.1803 50.4962 33.9243C50.1922 33.6683 49.8202 33.5403 49.3802 33.5403C48.9002 33.5403 48.5002 33.6723 48.1802 33.9363C47.8602 34.2003 47.6562 34.5603 47.5682 35.0163Z" fill="#181725"/>
<defs>
<clipPath id="clip0_1_1376">
<rect width="24" height="24" fill="white" transform="translate(14.2729 0.83374)"/>
</clipPath>
</defs>
</svg>
