<svg width="47" height="43" viewBox="0 0 47 43" fill="none" xmlns="http://www.w3.org/2000/svg">
<path d="M19.8979 12.4218C20.0387 12.3693 20.1901 12.3421 20.3432 12.3416C20.4963 12.3411 20.648 12.3674 20.7893 12.419C20.9305 12.4706 21.0585 12.5463 21.1657 12.6418C21.2728 12.7373 21.3569 12.8506 21.4131 12.9749C21.4692 13.0993 21.4962 13.2322 21.4925 13.3659C21.4888 13.4995 21.4544 13.6311 21.3914 13.7529C21.3284 13.8748 21.2381 13.9844 21.1258 14.0752C21.0135 14.166 20.8814 14.2363 20.7375 14.2818C19.9718 14.5452 19.3146 15.0037 18.8515 15.5976C18.3884 16.1915 18.1407 16.8933 18.1407 17.6118V19.3518C18.1407 19.617 18.2614 19.8714 18.4762 20.0589C18.6911 20.2465 18.9824 20.3518 19.2862 20.3518H28.4498C28.7535 20.3518 29.0449 20.2465 29.2597 20.0589C29.4745 19.8714 29.5952 19.617 29.5952 19.3518V17.7048C29.5953 16.9633 29.3373 16.2392 28.8554 15.6286C28.3734 15.018 27.6903 14.5497 26.8965 14.2858C26.7517 14.2419 26.6184 14.1731 26.5046 14.0834C26.3908 13.9937 26.2987 13.885 26.2339 13.7637C26.1691 13.6424 26.1329 13.5109 26.1274 13.3771C26.1218 13.2434 26.1471 13.11 26.2017 12.9849C26.2563 12.8598 26.3392 12.7456 26.4453 12.649C26.5514 12.5524 26.6786 12.4753 26.8195 12.4224C26.9603 12.3695 27.1119 12.3419 27.2653 12.3411C27.4186 12.3403 27.5705 12.3664 27.7121 12.4178C28.9396 12.826 29.996 13.5501 30.7414 14.4943C31.4868 15.4385 31.886 16.5581 31.8861 17.7048V19.3518C31.8861 20.1475 31.524 20.9105 30.8796 21.4731C30.2352 22.0357 29.3611 22.3518 28.4498 22.3518H19.2862C18.3748 22.3518 17.5008 22.0357 16.8563 21.4731C16.2119 20.9105 15.8499 20.1475 15.8499 19.3518V17.6118C15.85 16.492 16.2362 15.3981 16.9581 14.4724C17.6801 13.5468 18.7044 12.8323 19.8979 12.4218ZM23.868 2.35181C25.0831 2.35181 26.2485 2.77323 27.1078 3.52338C27.967 4.27352 28.4498 5.29094 28.4498 6.35181V8.35181C28.4498 9.41267 27.967 10.4301 27.1078 11.1802C26.2485 11.9304 25.0831 12.3518 23.868 12.3518C22.6528 12.3518 21.4874 11.9304 20.6282 11.1802C19.7689 10.4301 19.2862 9.41267 19.2862 8.35181V6.35181C19.2862 5.29094 19.7689 4.27352 20.6282 3.52338C21.4874 2.77323 22.6528 2.35181 23.868 2.35181ZM23.868 4.35181C23.2604 4.35181 22.6777 4.56252 22.2481 4.93759C21.8184 5.31267 21.5771 5.82137 21.5771 6.35181V8.35181C21.5771 8.88224 21.8184 9.39095 22.2481 9.76602C22.6777 10.1411 23.2604 10.3518 23.868 10.3518C24.4756 10.3518 25.0583 10.1411 25.4879 9.76602C25.9175 9.39095 26.1589 8.88224 26.1589 8.35181V6.35181C26.1589 5.82137 25.9175 5.31267 25.4879 4.93759C25.0583 4.56252 24.4756 4.35181 23.868 4.35181Z" fill="#53B175"/>
<path d="M8.70503 38.5203H7.21703L6.62903 36.8283H3.05303L2.46503 38.5203H0.965029L4.01303 30.1203H5.66903L8.70503 38.5203ZM4.84103 31.7403L3.50903 35.5323H6.17303L4.84103 31.7403ZM12.204 38.6763C11.3 38.6763 10.544 38.3723 9.93597 37.7643C9.33597 37.1483 9.03597 36.4003 9.03597 35.5203C9.03597 34.6243 9.33597 33.8763 9.93597 33.2763C10.544 32.6683 11.3 32.3643 12.204 32.3643C12.788 32.3643 13.32 32.5043 13.8 32.7843C14.28 33.0643 14.64 33.4403 14.88 33.9123L13.764 34.5603C13.628 34.2723 13.42 34.0483 13.14 33.8883C12.868 33.7203 12.552 33.6363 12.192 33.6363C11.664 33.6363 11.22 33.8163 10.86 34.1763C10.508 34.5443 10.332 34.9923 10.332 35.5203C10.332 36.0483 10.508 36.4963 10.86 36.8643C11.22 37.2243 11.664 37.4043 12.192 37.4043C12.544 37.4043 12.86 37.3243 13.14 37.1643C13.428 36.9963 13.644 36.7683 13.788 36.4803L14.904 37.1163C14.648 37.5963 14.276 37.9763 13.788 38.2563C13.308 38.5363 12.78 38.6763 12.204 38.6763ZM18.579 38.6763C17.675 38.6763 16.919 38.3723 16.311 37.7643C15.711 37.1483 15.411 36.4003 15.411 35.5203C15.411 34.6243 15.711 33.8763 16.311 33.2763C16.919 32.6683 17.675 32.3643 18.579 32.3643C19.163 32.3643 19.695 32.5043 20.175 32.7843C20.655 33.0643 21.015 33.4403 21.255 33.9123L20.139 34.5603C20.003 34.2723 19.795 34.0483 19.515 33.8883C19.243 33.7203 18.927 33.6363 18.567 33.6363C18.039 33.6363 17.595 33.8163 17.235 34.1763C16.883 34.5443 16.707 34.9923 16.707 35.5203C16.707 36.0483 16.883 36.4963 17.235 36.8643C17.595 37.2243 18.039 37.4043 18.567 37.4043C18.919 37.4043 19.235 37.3243 19.515 37.1643C19.803 36.9963 20.019 36.7683 20.163 36.4803L21.279 37.1163C21.023 37.5963 20.651 37.9763 20.163 38.2563C19.683 38.5363 19.155 38.6763 18.579 38.6763ZM27.198 37.7643C26.59 38.3723 25.842 38.6763 24.954 38.6763C24.066 38.6763 23.318 38.3723 22.71 37.7643C22.094 37.1483 21.786 36.4003 21.786 35.5203C21.786 34.6403 22.094 33.8923 22.71 33.2763C23.318 32.6683 24.066 32.3643 24.954 32.3643C25.842 32.3643 26.59 32.6683 27.198 33.2763C27.814 33.8923 28.122 34.6403 28.122 35.5203C28.122 36.4003 27.814 37.1483 27.198 37.7643ZM23.082 35.5203C23.082 36.0643 23.262 36.5163 23.622 36.8763C23.982 37.2363 24.426 37.4163 24.954 37.4163C25.482 37.4163 25.926 37.2363 26.286 36.8763C26.646 36.5163 26.826 36.0643 26.826 35.5203C26.826 34.9763 26.646 34.5243 26.286 34.1643C25.926 33.8043 25.482 33.6243 24.954 33.6243C24.426 33.6243 23.982 33.8043 23.622 34.1643C23.262 34.5243 23.082 34.9763 23.082 35.5203ZM33.3378 35.7363V32.5203H34.6338V38.5203H33.3378V37.7523C32.9378 38.3683 32.3178 38.6763 31.4778 38.6763C30.7818 38.6763 30.2218 38.4563 29.7978 38.0163C29.3818 37.5683 29.1738 36.9643 29.1738 36.2043V32.5203H30.4698V36.0723C30.4698 36.5203 30.5898 36.8643 30.8298 37.1043C31.0698 37.3443 31.3978 37.4643 31.8138 37.4643C32.2858 37.4643 32.6578 37.3203 32.9298 37.0323C33.2018 36.7363 33.3378 36.3043 33.3378 35.7363ZM39.3053 32.3643C40.0013 32.3643 40.5573 32.5883 40.9733 33.0363C41.3973 33.4763 41.6093 34.0763 41.6093 34.8363V38.5203H40.3133V34.9683C40.3133 34.5203 40.1933 34.1763 39.9533 33.9363C39.7133 33.6963 39.3853 33.5763 38.9693 33.5763C38.4973 33.5763 38.1253 33.7243 37.8533 34.0203C37.5813 34.3083 37.4453 34.7363 37.4453 35.3043V38.5203H36.1493V32.5203H37.4453V33.2883C37.8453 32.6723 38.4653 32.3643 39.3053 32.3643ZM46.3528 32.5203V33.7683H44.8648V36.6483C44.8648 36.8963 44.9208 37.0763 45.0328 37.1883C45.1448 37.2923 45.3088 37.3523 45.5248 37.3683C45.7488 37.3763 46.0248 37.3723 46.3528 37.3563V38.5203C45.3608 38.6403 44.6488 38.5563 44.2168 38.2683C43.7848 37.9723 43.5688 37.4323 43.5688 36.6483V33.7683H42.4648V32.5203H43.5688V31.2243L44.8648 30.8403V32.5203H46.3528Z" fill="#53B175"/>
</svg>
