<svg width="114" height="20" viewBox="0 0 114 20" fill="none" xmlns="http://www.w3.org/2000/svg">
<path d="M8.44132 14.0158C9.21889 14.0158 9.98884 13.8606 10.7072 13.559C11.4256 13.2575 12.0783 12.8156 12.6282 12.2584C13.178 11.7013 13.6141 11.0398 13.9117 10.3119C14.2093 9.58391 14.3624 8.80369 14.3624 8.01576C14.3624 7.22783 14.2093 6.44761 13.9117 5.71966C13.6141 4.99171 13.178 4.33027 12.6282 3.77312C12.0783 3.21597 11.4256 2.77401 10.7072 2.47248C9.98884 2.17096 9.21889 2.01576 8.44132 2.01576C6.87094 2.01576 5.36489 2.6479 4.25447 3.77312C3.14404 4.89834 2.52022 6.42446 2.52022 8.01576C2.52022 9.60706 3.14404 11.1332 4.25447 12.2584C5.36489 13.3836 6.87094 14.0158 8.44132 14.0158ZM14.6782 12.9218L18.2111 16.5018C18.3053 16.5941 18.3804 16.7045 18.432 16.8265C18.4837 16.9486 18.5108 17.0798 18.5119 17.2126C18.5129 17.3454 18.4878 17.477 18.4381 17.5999C18.3884 17.7227 18.3151 17.8343 18.2224 17.9282C18.1296 18.022 18.0194 18.0962 17.8981 18.1463C17.7768 18.1965 17.6468 18.2218 17.5158 18.2205C17.3847 18.2193 17.2553 18.1916 17.1349 18.1391C17.0145 18.0866 16.9057 18.0103 16.8147 17.9148L13.2818 14.3348C11.6954 15.5826 9.69934 16.1709 7.69995 15.98C5.70055 15.789 3.84813 14.8331 2.51977 13.3068C1.19142 11.7806 0.486995 9.79871 0.549898 7.76469C0.612801 5.73066 1.4383 3.79739 2.85836 2.35841C4.27841 0.919431 6.18627 0.0829289 8.19354 0.0191878C10.2008 -0.0445533 12.1566 0.669259 13.6628 2.01531C15.169 3.36137 16.1123 5.23848 16.3008 7.26452C16.4892 9.29056 15.9087 11.3132 14.6772 12.9208L14.6782 12.9218Z" fill="#181B19"/>
<path d="M30.7827 10.0346V12.6806H35.1227V14.2206H29.1727V4.42058H35.0527V5.96058H30.7827V8.50858H34.7027V10.0346H30.7827ZM41.9339 8.25658V7.22058H43.4179V13.8986C43.4179 14.9626 43.0679 15.7792 42.3679 16.3486C41.6772 16.9179 40.8279 17.2026 39.8199 17.2026C38.2052 17.2026 37.0992 16.6379 36.5019 15.5086L37.8039 14.7526C38.1679 15.4712 38.8492 15.8306 39.8479 15.8306C40.5012 15.8306 41.0099 15.6579 41.3739 15.3126C41.7472 14.9766 41.9339 14.5052 41.9339 13.8986V13.0446C41.3645 13.8566 40.5525 14.2626 39.4979 14.2626C38.5179 14.2626 37.6825 13.9126 36.9919 13.2126C36.3105 12.5032 35.9699 11.6492 35.9699 10.6506C35.9699 9.64258 36.3105 8.79325 36.9919 8.10258C37.6732 7.39325 38.5085 7.03858 39.4979 7.03858C40.5525 7.03858 41.3645 7.44458 41.9339 8.25658ZM38.1119 12.2186C38.5412 12.6386 39.0732 12.8486 39.7079 12.8486C40.3425 12.8486 40.8699 12.6386 41.2899 12.2186C41.7192 11.7986 41.9339 11.2759 41.9339 10.6506C41.9339 10.0252 41.7192 9.50258 41.2899 9.08258C40.8699 8.66258 40.3425 8.45258 39.7079 8.45258C39.0732 8.45258 38.5412 8.66258 38.1119 9.08258C37.6919 9.50258 37.4819 10.0252 37.4819 10.6506C37.4819 11.2759 37.6919 11.7986 38.1119 12.2186ZM50.7522 8.25658V7.22058H52.2362V13.8986C52.2362 14.9626 51.8862 15.7792 51.1862 16.3486C50.4956 16.9179 49.6462 17.2026 48.6382 17.2026C47.0236 17.2026 45.9176 16.6379 45.3202 15.5086L46.6222 14.7526C46.9862 15.4712 47.6676 15.8306 48.6662 15.8306C49.3196 15.8306 49.8282 15.6579 50.1922 15.3126C50.5656 14.9766 50.7522 14.5052 50.7522 13.8986V13.0446C50.1829 13.8566 49.3709 14.2626 48.3162 14.2626C47.3362 14.2626 46.5009 13.9126 45.8102 13.2126C45.1289 12.5032 44.7882 11.6492 44.7882 10.6506C44.7882 9.64258 45.1289 8.79325 45.8102 8.10258C46.4916 7.39325 47.3269 7.03858 48.3162 7.03858C49.3709 7.03858 50.1829 7.44458 50.7522 8.25658ZM46.9302 12.2186C47.3596 12.6386 47.8916 12.8486 48.5262 12.8486C49.1609 12.8486 49.6882 12.6386 50.1082 12.2186C50.5376 11.7986 50.7522 11.2759 50.7522 10.6506C50.7522 10.0252 50.5376 9.50258 50.1082 9.08258C49.6882 8.66258 49.1609 8.45258 48.5262 8.45258C47.8916 8.45258 47.3596 8.66258 46.9302 9.08258C46.5102 9.50258 46.3002 10.0252 46.3002 10.6506C46.3002 11.2759 46.5102 11.7986 46.9302 12.2186Z" fill="#181B19"/>
</svg>
