<svg width="30" height="43" viewBox="0 0 30 43" fill="none" xmlns="http://www.w3.org/2000/svg">
<path d="M7.98804 2.40161H21.988C22.6724 2.40161 23.3323 2.63968 23.8572 3.06958L24.074 3.26587C24.6272 3.8191 24.9382 4.56942 24.9382 5.35181V7.35181C24.9382 8.21903 24.5643 8.99943 23.9675 9.53931L23.9509 9.55493V20.3167C23.9509 20.8338 23.7453 21.3299 23.3796 21.6956C23.014 22.0612 22.5179 22.2668 22.0007 22.2668H14.3611V22.2659L14.3513 22.2678C14.2316 22.2904 14.1099 22.302 13.988 22.302H11.988L11.8054 22.2932C11.7449 22.2875 11.6846 22.2791 11.6248 22.2678L11.615 22.3167L11.6248 22.2668H7.99878C7.4817 22.2668 6.98551 22.0612 6.61987 21.6956C6.25431 21.3299 6.04858 20.8337 6.04858 20.3167V9.47583L5.99585 9.52759C5.69981 9.25696 5.46127 8.92886 5.29663 8.56274C5.1255 8.18206 5.03726 7.76919 5.03784 7.35181V5.35181C5.03784 4.6674 5.27591 4.00754 5.70581 3.48267L5.9021 3.26587C6.45533 2.71264 7.20565 2.40161 7.98804 2.40161ZM17.9548 9.55103C17.4146 10.0356 16.7138 10.303 15.988 10.302H13.988C13.2329 10.302 12.5424 10.018 12.0212 9.55103L11.988 9.52075L11.9548 9.55103C11.4146 10.0356 10.7138 10.303 9.98804 10.302H7.948V20.3665H10.0378V15.3518C10.0378 14.8346 10.2434 14.3386 10.6091 13.9729C10.9748 13.6072 11.4709 13.4016 11.988 13.4016H13.988C14.5052 13.4016 15.0012 13.6072 15.3669 13.9729C15.7326 14.3386 15.9382 14.8346 15.9382 15.3518V20.3665H22.0515V10.302H19.988C19.2329 10.302 18.5424 10.018 18.0212 9.55103L17.988 9.52075L17.9548 9.55103ZM11.9382 20.3665H13.988V20.3176H14.0378V15.302H11.9382V20.3665ZM18.988 13.4016H19.988C20.24 13.4016 20.4818 13.5018 20.6599 13.6799C20.8381 13.8581 20.9382 14.0999 20.9382 14.3518V17.3518C20.9382 17.6038 20.8381 17.8455 20.6599 18.0237C20.4818 18.2018 20.24 18.302 19.988 18.302H18.988C18.7361 18.302 18.4943 18.2018 18.3162 18.0237C18.138 17.8455 18.0378 17.6038 18.0378 17.3518V14.3518C18.0378 14.0999 18.138 13.8581 18.3162 13.6799C18.4943 13.5018 18.7361 13.4016 18.988 13.4016ZM7.98804 4.302C7.70956 4.302 7.44276 4.41271 7.24585 4.60962C7.04894 4.80653 6.93823 5.07333 6.93823 5.35181V7.35181C6.93823 7.63028 7.04894 7.89708 7.24585 8.09399C7.44276 8.29091 7.70956 8.40161 7.98804 8.40161H9.98804C10.2665 8.40161 10.5333 8.29091 10.7302 8.09399C10.9271 7.89708 11.0378 7.63028 11.0378 7.35181V4.302H7.98804ZM12.9382 7.35181C12.9382 7.63028 13.0489 7.89708 13.2458 8.09399C13.4428 8.29091 13.7096 8.40161 13.988 8.40161H15.988C16.2665 8.40161 16.5333 8.29091 16.7302 8.09399C16.9271 7.89708 17.0378 7.63028 17.0378 7.35181V4.302H12.9382V7.35181ZM18.9382 7.35181C18.9382 7.63028 19.0489 7.89708 19.2458 8.09399C19.4428 8.29091 19.7096 8.40161 19.988 8.40161H21.988C22.2665 8.40161 22.5333 8.29091 22.7302 8.09399C22.9271 7.89708 23.0378 7.63028 23.0378 7.35181V5.35181C23.0378 5.07333 22.9271 4.80653 22.7302 4.60962C22.5333 4.41271 22.2665 4.302 21.988 4.302H18.9382V7.35181Z" fill="#181725" stroke="white" stroke-width="0.1"/>
<path d="M4.34474 38.6763C3.53674 38.6763 2.84874 38.4963 2.28074 38.1363C1.72074 37.7683 1.32874 37.2603 1.10474 36.6123L2.29274 35.9163C2.62874 36.8603 3.32474 37.3323 4.38074 37.3323C4.89274 37.3323 5.28074 37.2323 5.54474 37.0323C5.80874 36.8323 5.94074 36.5643 5.94074 36.2283C5.94074 35.8923 5.80074 35.6323 5.52074 35.4483C5.24074 35.2643 4.74474 35.0643 4.03274 34.8483C3.30474 34.6323 2.71674 34.3763 2.26874 34.0803C1.72474 33.6963 1.45274 33.1323 1.45274 32.3883C1.45274 31.6443 1.71674 31.0563 2.24474 30.6243C2.76474 30.1843 3.40074 29.9643 4.15274 29.9643C4.81674 29.9643 5.40074 30.1283 5.90474 30.4563C6.41674 30.7763 6.80874 31.2283 7.08074 31.8123L5.91674 32.4843C5.56474 31.7003 4.97674 31.3083 4.15274 31.3083C3.75274 31.3083 3.43274 31.4043 3.19274 31.5963C2.95274 31.7803 2.83274 32.0323 2.83274 32.3523C2.83274 32.6643 2.95274 32.9123 3.19274 33.0963C3.43274 33.2723 3.87674 33.4603 4.52474 33.6603C4.92474 33.7963 5.15674 33.8763 5.22074 33.9003C5.32474 33.9323 5.53274 34.0123 5.84474 34.1403C6.10074 34.2443 6.30474 34.3563 6.45674 34.4763C7.08074 34.9643 7.36874 35.5403 7.32074 36.2043C7.32074 36.9643 7.04474 37.5683 6.49274 38.0163C5.95674 38.4563 5.24074 38.6763 4.34474 38.6763ZM11.5934 32.3643C12.2894 32.3643 12.8454 32.5883 13.2614 33.0363C13.6854 33.4763 13.8974 34.0763 13.8974 34.8363V38.5203H12.6014V34.9683C12.6014 34.5203 12.4814 34.1763 12.2414 33.9363C12.0014 33.6963 11.6734 33.5763 11.2574 33.5763C10.7854 33.5763 10.4134 33.7243 10.1414 34.0203C9.8694 34.3083 9.7334 34.7363 9.7334 35.3043V38.5203H8.4374V30.1203H9.7334V33.2883C10.1334 32.6723 10.7534 32.3643 11.5934 32.3643ZM20.3689 37.7643C19.7609 38.3723 19.0129 38.6763 18.1249 38.6763C17.2369 38.6763 16.4889 38.3723 15.8809 37.7643C15.2649 37.1483 14.9569 36.4003 14.9569 35.5203C14.9569 34.6403 15.2649 33.8923 15.8809 33.2763C16.4889 32.6683 17.2369 32.3643 18.1249 32.3643C19.0129 32.3643 19.7609 32.6683 20.3689 33.2763C20.9849 33.8923 21.2929 34.6403 21.2929 35.5203C21.2929 36.4003 20.9849 37.1483 20.3689 37.7643ZM16.2529 35.5203C16.2529 36.0643 16.4329 36.5163 16.7929 36.8763C17.1529 37.2363 17.5969 37.4163 18.1249 37.4163C18.6529 37.4163 19.0969 37.2363 19.4569 36.8763C19.8169 36.5163 19.9969 36.0643 19.9969 35.5203C19.9969 34.9763 19.8169 34.5243 19.4569 34.1643C19.0969 33.8043 18.6529 33.6243 18.1249 33.6243C17.5969 33.6243 17.1529 33.8043 16.7929 34.1643C16.4329 34.5243 16.2529 34.9763 16.2529 35.5203ZM25.8607 32.3643C26.6767 32.3643 27.3807 32.6723 27.9727 33.2883C28.5567 33.8963 28.8487 34.6403 28.8487 35.5203C28.8487 36.4083 28.5567 37.1563 27.9727 37.7643C27.3887 38.3723 26.6847 38.6763 25.8607 38.6763C24.9567 38.6763 24.2567 38.3403 23.7607 37.6683V40.9203H22.4647V32.5203H23.7607V33.3843C24.2487 32.7043 24.9487 32.3643 25.8607 32.3643ZM24.3007 36.9003C24.6607 37.2603 25.1127 37.4403 25.6567 37.4403C26.2007 37.4403 26.6527 37.2603 27.0127 36.9003C27.3727 36.5323 27.5527 36.0723 27.5527 35.5203C27.5527 34.9683 27.3727 34.5123 27.0127 34.1523C26.6527 33.7843 26.2007 33.6003 25.6567 33.6003C25.1127 33.6003 24.6607 33.7843 24.3007 34.1523C23.9407 34.5123 23.7607 34.9683 23.7607 35.5203C23.7607 36.0643 23.9407 36.5243 24.3007 36.9003Z" fill="#181725"/>
</svg>
